<svg width="124" height="20" viewBox="0 0 124 20" fill="none" xmlns="http://www.w3.org/2000/svg">
  <path d="M120.051 12.0226C122.221 11.1492 123.478 9.08563 123.478 6.69019C123.478 3.49242 121.227 0.890625 117.515 0.890625H110.631V18.9299H113.142V12.5145H117.459L121.15 18.9299H124.001L120.051 12.0226ZM117.513 10.0663H113.142V3.34054H117.513C119.71 3.34054 120.91 4.93695 120.91 6.69184C120.912 8.4682 119.71 10.0663 117.513 10.0663Z" fill="#242D36"/>
  <path d="M93.9081 16.4568V11.0964H102.622V8.70098H93.9081V3.34054H103.433V0.890625H91.4258V18.9299H103.564V16.4568H93.9081V16.4568Z" fill="#242D36"/>
  <path d="M74.9961 0.890625H69.6074V18.9299H74.9961C80.8843 18.9299 84.6253 15.1411 84.6253 9.91108C84.6253 4.65465 80.963 0.890625 74.9961 0.890625ZM74.9961 16.4568H72.0931V3.33889H74.9961C79.3925 3.33889 82.0609 5.89116 82.0609 9.91108C82.0592 13.9046 79.3121 16.4568 74.9961 16.4568Z" fill="#242D36"/>
  <path d="M59.5303 0.890625V18.9299H62.0159V0.890625H59.5303Z" fill="#242D36"/>
  <path d="M46.1087 8.54605C43.1772 7.72226 41.8966 7.10648 41.8966 5.73789C41.8966 4.47661 42.9425 3.18562 45.6092 3.18562C48.0949 3.18562 49.1408 4.32308 49.6118 5.55959L51.9935 4.76057C51.132 2.51866 48.9614 0.710938 45.5338 0.710938C41.7374 0.710938 39.3305 2.72172 39.2266 5.63388C39.121 8.77718 41.5279 9.88657 45.2204 10.9167C48.3329 11.7933 49.9537 12.4141 49.9537 14.0353C49.9537 15.6861 48.2273 16.6915 46.0299 16.6915C43.4387 16.6915 41.7374 15.4055 41.1122 14.1145L38.7305 15.0951C39.7261 17.3123 42.314 19.191 46.1104 19.191C50.3224 19.191 52.5986 16.7708 52.5986 13.9626C52.5986 10.684 49.8229 9.57951 46.1087 8.54605Z" fill="#242D36"/>
  <path d="M22.7972 16.4568V11.0964H31.5079V8.70098H22.7972V3.34054H32.3192V0.890625H20.3115V18.9299H32.4532V16.4568H22.7972V16.4568Z" fill="#242D36"/>
  <path d="M0 0.839844L0.00167617 3.28811H0.0804532H2.58791H4.77356H6.93406C9.13144 3.28811 10.3617 4.88452 10.3617 6.66417C10.3617 8.41741 9.13144 10.0155 6.93406 10.0155H2.58959H0.0804532H0V18.8791H2.59126V12.4637H6.90892L10.5964 18.8791H13.4524L9.50018 11.9718C11.6707 11.0704 12.9278 9.03485 12.9278 6.66417C12.9278 3.44164 10.6517 0.839844 6.93406 0.839844H2.58959H0Z" fill="#366CA5"/>
</svg>
